<mxfile host="drawio-plugin" modified="2021-04-29T14:34:01.413Z" agent="5.0 (X11; Linux x86_64) AppleWebKit/537.36 (KHTML, like Gecko) Chrome/87.0.4280.141 Safari/537.36" etag="k49wARZJxgzAv_SwOb7s" version="13.7.9" type="embed"><diagram id="C5RBs43oDa-KdzZeNtuy" name="Page-1"><mxGraphModel dx="1030" dy="709" grid="1" gridSize="10" guides="1" tooltips="1" connect="1" arrows="1" fold="1" page="1" pageScale="1" pageWidth="827" pageHeight="1169" math="0" shadow="0"><root><mxCell id="WIyWlLk6GJQsqaUBKTNV-0"/><mxCell id="WIyWlLk6GJQsqaUBKTNV-1" parent="WIyWlLk6GJQsqaUBKTNV-0"/><mxCell id="dH2cKJ3KjYlly9luaZb7-0" value="&lt;&lt;Interface&gt;&gt;&#10;HouseBuilder" style="swimlane;fontStyle=3;align=center;verticalAlign=top;childLayout=stackLayout;horizontal=1;startSize=40;horizontalStack=0;resizeParent=1;resizeParentMax=0;resizeLast=0;collapsible=1;marginBottom=0;" parent="WIyWlLk6GJQsqaUBKTNV-1" vertex="1"><mxGeometry x="400" y="20" width="160" height="94" as="geometry"/></mxCell><mxCell id="dH2cKJ3KjYlly9luaZb7-3" value="+ build_house(): Void&#10;+ build_garden(): Void&#10;+ build_basement(): Void" style="text;strokeColor=none;fillColor=none;align=left;verticalAlign=top;spacingLeft=4;spacingRight=4;overflow=hidden;rotatable=0;points=[[0,0.5],[1,0.5]];portConstraint=eastwest;" parent="dH2cKJ3KjYlly9luaZb7-0" vertex="1"><mxGeometry y="40" width="160" height="54" as="geometry"/></mxCell><mxCell id="dH2cKJ3KjYlly9luaZb7-4" value="WealthyHouseBuilder" style="swimlane;fontStyle=1;align=center;verticalAlign=top;childLayout=stackLayout;horizontal=1;startSize=26;horizontalStack=0;resizeParent=1;resizeParentMax=0;resizeLast=0;collapsible=1;marginBottom=0;" parent="WIyWlLk6GJQsqaUBKTNV-1" vertex="1"><mxGeometry x="400" y="150" width="160" height="160" as="geometry"/></mxCell><mxCell id="dH2cKJ3KjYlly9luaZb7-5" value="+ house: House" style="text;strokeColor=none;fillColor=none;align=left;verticalAlign=top;spacingLeft=4;spacingRight=4;overflow=hidden;rotatable=0;points=[[0,0.5],[1,0.5]];portConstraint=eastwest;" parent="dH2cKJ3KjYlly9luaZb7-4" vertex="1"><mxGeometry y="26" width="160" height="26" as="geometry"/></mxCell><mxCell id="dH2cKJ3KjYlly9luaZb7-6" value="" style="line;strokeWidth=1;fillColor=none;align=left;verticalAlign=middle;spacingTop=-1;spacingLeft=3;spacingRight=3;rotatable=0;labelPosition=right;points=[];portConstraint=eastwest;" parent="dH2cKJ3KjYlly9luaZb7-4" vertex="1"><mxGeometry y="52" width="160" height="8" as="geometry"/></mxCell><mxCell id="dH2cKJ3KjYlly9luaZb7-7" value="+ build_house()&#10;+ build_garden()&#10;+ build_basement()&#10;+ reset_house()&#10;+ show_house()&#10;+ return_house(): House" style="text;strokeColor=none;fillColor=none;align=left;verticalAlign=top;spacingLeft=4;spacingRight=4;overflow=hidden;rotatable=0;points=[[0,0.5],[1,0.5]];portConstraint=eastwest;" parent="dH2cKJ3KjYlly9luaZb7-4" vertex="1"><mxGeometry y="60" width="160" height="100" as="geometry"/></mxCell><mxCell id="dH2cKJ3KjYlly9luaZb7-8" style="edgeStyle=orthogonalEdgeStyle;rounded=0;orthogonalLoop=1;jettySize=auto;html=1;exitX=0.7;exitY=1.019;exitDx=0;exitDy=0;exitPerimeter=0;dashed=1;endArrow=block;endFill=0;endSize=9;startSize=9;" parent="WIyWlLk6GJQsqaUBKTNV-1" source="dH2cKJ3KjYlly9luaZb7-3" target="dH2cKJ3KjYlly9luaZb7-4" edge="1"><mxGeometry relative="1" as="geometry"/></mxCell><mxCell id="dH2cKJ3KjYlly9luaZb7-9" value="House" style="swimlane;fontStyle=1;align=center;verticalAlign=top;childLayout=stackLayout;horizontal=1;startSize=26;horizontalStack=0;resizeParent=1;resizeParentMax=0;resizeLast=0;collapsible=1;marginBottom=0;" parent="WIyWlLk6GJQsqaUBKTNV-1" vertex="1"><mxGeometry x="400" y="350" width="160" height="120" as="geometry"/></mxCell><mxCell id="dH2cKJ3KjYlly9luaZb7-10" value="+ name: str&#10;+ structure: list" style="text;strokeColor=none;fillColor=none;align=left;verticalAlign=top;spacingLeft=4;spacingRight=4;overflow=hidden;rotatable=0;points=[[0,0.5],[1,0.5]];portConstraint=eastwest;" parent="dH2cKJ3KjYlly9luaZb7-9" vertex="1"><mxGeometry y="26" width="160" height="34" as="geometry"/></mxCell><mxCell id="dH2cKJ3KjYlly9luaZb7-11" value="" style="line;strokeWidth=1;fillColor=none;align=left;verticalAlign=middle;spacingTop=-1;spacingLeft=3;spacingRight=3;rotatable=0;labelPosition=right;points=[];portConstraint=eastwest;" parent="dH2cKJ3KjYlly9luaZb7-9" vertex="1"><mxGeometry y="60" width="160" height="8" as="geometry"/></mxCell><mxCell id="dH2cKJ3KjYlly9luaZb7-12" value="+ add()&#10;+ reset_house()&#10;+ show_house()" style="text;strokeColor=none;fillColor=none;align=left;verticalAlign=top;spacingLeft=4;spacingRight=4;overflow=hidden;rotatable=0;points=[[0,0.5],[1,0.5]];portConstraint=eastwest;" parent="dH2cKJ3KjYlly9luaZb7-9" vertex="1"><mxGeometry y="68" width="160" height="52" as="geometry"/></mxCell><mxCell id="dH2cKJ3KjYlly9luaZb7-13" style="edgeStyle=orthogonalEdgeStyle;rounded=0;orthogonalLoop=1;jettySize=auto;html=1;exitX=0.931;exitY=1.01;exitDx=0;exitDy=0;exitPerimeter=0;dashed=1;endArrow=classic;endFill=1;endSize=9;startSize=9;" parent="WIyWlLk6GJQsqaUBKTNV-1" source="dH2cKJ3KjYlly9luaZb7-7" edge="1"><mxGeometry relative="1" as="geometry"><mxPoint x="522" y="121.02600000000007" as="sourcePoint"/><mxPoint x="480" y="350" as="targetPoint"/><Array as="points"><mxPoint x="549" y="330"/><mxPoint x="480" y="330"/></Array></mxGeometry></mxCell><mxCell id="dH2cKJ3KjYlly9luaZb7-14" value="ask for" style="edgeLabel;html=1;align=center;verticalAlign=middle;resizable=0;points=[];" parent="dH2cKJ3KjYlly9luaZb7-13" vertex="1" connectable="0"><mxGeometry x="0.241" y="-2" relative="1" as="geometry"><mxPoint x="-17.96" y="-4" as="offset"/></mxGeometry></mxCell><mxCell id="dH2cKJ3KjYlly9luaZb7-15" value="Director" style="swimlane;fontStyle=1;align=center;verticalAlign=top;childLayout=stackLayout;horizontal=1;startSize=26;horizontalStack=0;resizeParent=1;resizeParentMax=0;resizeLast=0;collapsible=1;marginBottom=0;" parent="WIyWlLk6GJQsqaUBKTNV-1" vertex="1"><mxGeometry x="170" y="20" width="160" height="160" as="geometry"/></mxCell><mxCell id="dH2cKJ3KjYlly9luaZb7-16" value="+ builder: HouseBuilder " style="text;strokeColor=none;fillColor=none;align=left;verticalAlign=top;spacingLeft=4;spacingRight=4;overflow=hidden;rotatable=0;points=[[0,0.5],[1,0.5]];portConstraint=eastwest;" parent="dH2cKJ3KjYlly9luaZb7-15" vertex="1"><mxGeometry y="26" width="160" height="26" as="geometry"/></mxCell><mxCell id="dH2cKJ3KjYlly9luaZb7-17" value="" style="line;strokeWidth=1;fillColor=none;align=left;verticalAlign=middle;spacingTop=-1;spacingLeft=3;spacingRight=3;rotatable=0;labelPosition=right;points=[];portConstraint=eastwest;" parent="dH2cKJ3KjYlly9luaZb7-15" vertex="1"><mxGeometry y="52" width="160" height="8" as="geometry"/></mxCell><mxCell id="dH2cKJ3KjYlly9luaZb7-21" style="edgeStyle=orthogonalEdgeStyle;rounded=0;orthogonalLoop=1;jettySize=auto;html=1;exitX=0.931;exitY=1.01;exitDx=0;exitDy=0;exitPerimeter=0;dashed=1;endArrow=classic;endFill=1;endSize=9;startSize=9;entryX=0.013;entryY=0.352;entryDx=0;entryDy=0;entryPerimeter=0;" parent="dH2cKJ3KjYlly9luaZb7-15" target="dH2cKJ3KjYlly9luaZb7-3" edge="1"><mxGeometry relative="1" as="geometry"><mxPoint x="159.96000000000004" y="40" as="sourcePoint"/><mxPoint x="91" y="79" as="targetPoint"/><Array as="points"><mxPoint x="180" y="40"/><mxPoint x="180" y="55"/><mxPoint x="220" y="55"/><mxPoint x="220" y="59"/></Array></mxGeometry></mxCell><mxCell id="dH2cKJ3KjYlly9luaZb7-22" value="ask for" style="edgeLabel;html=1;align=center;verticalAlign=middle;resizable=0;points=[];" parent="dH2cKJ3KjYlly9luaZb7-21" vertex="1" connectable="0"><mxGeometry x="0.241" y="-2" relative="1" as="geometry"><mxPoint x="1.0399999999999991" y="-5" as="offset"/></mxGeometry></mxCell><mxCell id="dH2cKJ3KjYlly9luaZb7-18" value="+ set_builder()&#10;+ make_simple_house()&#10;+ make_complex_house()&#10;+ reset_house()&#10;+ show_house()&#10;+ return_house(): House" style="text;strokeColor=none;fillColor=none;align=left;verticalAlign=top;spacingLeft=4;spacingRight=4;overflow=hidden;rotatable=0;points=[[0,0.5],[1,0.5]];portConstraint=eastwest;" parent="dH2cKJ3KjYlly9luaZb7-15" vertex="1"><mxGeometry y="60" width="160" height="100" as="geometry"/></mxCell><mxCell id="dH2cKJ3KjYlly9luaZb7-26" value="use" style="edgeStyle=orthogonalEdgeStyle;rounded=0;orthogonalLoop=1;jettySize=auto;html=1;exitX=0.25;exitY=0;exitDx=0;exitDy=0;entryX=0.388;entryY=1.01;entryDx=0;entryDy=0;entryPerimeter=0;dashed=1;startSize=9;endArrow=classic;endFill=1;endSize=9;" parent="WIyWlLk6GJQsqaUBKTNV-1" source="dH2cKJ3KjYlly9luaZb7-23" target="dH2cKJ3KjYlly9luaZb7-18" edge="1"><mxGeometry relative="1" as="geometry"/></mxCell><mxCell id="dH2cKJ3KjYlly9luaZb7-28" value="use" style="edgeStyle=orthogonalEdgeStyle;rounded=0;orthogonalLoop=1;jettySize=auto;html=1;exitX=1;exitY=0.5;exitDx=0;exitDy=0;entryX=0.013;entryY=0.87;entryDx=0;entryDy=0;entryPerimeter=0;dashed=1;startSize=9;endArrow=classic;endFill=1;endSize=9;" parent="WIyWlLk6GJQsqaUBKTNV-1" source="dH2cKJ3KjYlly9luaZb7-23" target="dH2cKJ3KjYlly9luaZb7-3" edge="1"><mxGeometry relative="1" as="geometry"/></mxCell><mxCell id="dH2cKJ3KjYlly9luaZb7-23" value="Client" style="html=1;" parent="WIyWlLk6GJQsqaUBKTNV-1" vertex="1"><mxGeometry x="190" y="280" width="110" height="50" as="geometry"/></mxCell></root></mxGraphModel></diagram></mxfile>